<svg width="50" height="50" viewBox="0 0 50 50" fill="none" xmlns="http://www.w3.org/2000/svg">
<path d="M6.25 25H25V28.125H6.25V25ZM3.125 17.1875H18.75V20.3125H3.125V17.1875Z" fill="black"/>
<path d="M46.7484 25.9469L42.0609 15.0094C41.9407 14.7282 41.7404 14.4886 41.4852 14.3203C41.2299 14.152 40.9308 14.0623 40.625 14.0625H35.9375V10.9375C35.9375 10.5231 35.7729 10.1257 35.4799 9.83265C35.1868 9.53962 34.7894 9.375 34.375 9.375H9.375V12.5H32.8125V32.1187C32.1005 32.5322 31.4774 33.0825 30.9792 33.7379C30.4809 34.3933 30.1173 35.1409 29.9094 35.9375H20.0906C19.7103 34.4646 18.8059 33.181 17.5469 32.3272C16.2878 31.4734 14.7607 31.1081 13.2516 31.2998C11.7425 31.4915 10.3551 32.227 9.3495 33.3684C8.34389 34.5098 7.78909 35.9788 7.78909 37.5C7.78909 39.0212 8.34389 40.4902 9.3495 41.6316C10.3551 42.773 11.7425 43.5085 13.2516 43.7002C14.7607 43.8919 16.2878 43.5266 17.5469 42.6728C18.8059 41.819 19.7103 40.5354 20.0906 39.0625H29.9094C30.2493 40.4035 31.0266 41.5929 32.1184 42.4425C33.2102 43.292 34.5541 43.7533 35.9375 43.7533C37.3209 43.7533 38.6648 43.292 39.7566 42.4425C40.8484 41.5929 41.6257 40.4035 41.9656 39.0625H45.3125C45.7269 39.0625 46.1243 38.8979 46.4174 38.6049C46.7104 38.3118 46.875 37.9144 46.875 37.5V26.5625C46.8751 26.3508 46.832 26.1414 46.7484 25.9469ZM14.0625 40.625C13.4444 40.625 12.8403 40.4417 12.3263 40.0983C11.8124 39.755 11.4119 39.2669 11.1754 38.6959C10.9389 38.1249 10.877 37.4965 10.9976 36.8903C11.1181 36.2842 11.4158 35.7273 11.8528 35.2903C12.2898 34.8533 12.8467 34.5556 13.4528 34.435C14.059 34.3145 14.6874 34.3764 15.2584 34.6129C15.8294 34.8494 16.3175 35.2499 16.6608 35.7638C17.0042 36.2777 17.1875 36.8819 17.1875 37.5C17.1867 38.3285 16.8572 39.1229 16.2713 39.7088C15.6854 40.2947 14.8911 40.6242 14.0625 40.625ZM35.9375 17.1875H39.5938L42.9438 25H35.9375V17.1875ZM35.9375 40.625C35.3194 40.625 34.7153 40.4417 34.2013 40.0983C33.6874 39.755 33.2869 39.2669 33.0504 38.6959C32.8139 38.1249 32.752 37.4965 32.8726 36.8903C32.9931 36.2842 33.2908 35.7273 33.7278 35.2903C34.1648 34.8533 34.7217 34.5556 35.3278 34.435C35.934 34.3145 36.5624 34.3764 37.1334 34.6129C37.7044 34.8494 38.1925 35.2499 38.5358 35.7638C38.8792 36.2777 39.0625 36.8819 39.0625 37.5C39.0617 38.3285 38.7322 39.1229 38.1463 39.7088C37.5604 40.2947 36.7661 40.6242 35.9375 40.625ZM43.75 35.9375H41.9656C41.6214 34.5991 40.8429 33.4128 39.7519 32.5645C38.661 31.7162 37.3194 31.2538 35.9375 31.25V28.125H43.75V35.9375Z" fill="black"/>
</svg>
