<svg width="15" height="21" viewBox="0 0 15 21" fill="none" xmlns="http://www.w3.org/2000/svg">
<path d="M7.50004 9.97908C6.80937 9.97908 6.14699 9.70472 5.65862 9.21634C5.17024 8.72797 4.89587 8.06559 4.89587 7.37492C4.89587 6.68425 5.17024 6.02187 5.65862 5.53349C6.14699 5.04512 6.80937 4.77075 7.50004 4.77075C8.19071 4.77075 8.85309 5.04512 9.34146 5.53349C9.82984 6.02187 10.1042 6.68425 10.1042 7.37492C10.1042 7.7169 10.0368 8.05554 9.90598 8.37149C9.77511 8.68744 9.58328 8.97452 9.34146 9.21634C9.09964 9.45816 8.81256 9.64998 8.49661 9.78086C8.18066 9.91173 7.84202 9.97908 7.50004 9.97908ZM7.50004 0.083252C5.56617 0.083252 3.71151 0.851479 2.34405 2.21893C0.976601 3.58638 0.208374 5.44105 0.208374 7.37492C0.208374 12.8437 7.50004 20.9166 7.50004 20.9166C7.50004 20.9166 14.7917 12.8437 14.7917 7.37492C14.7917 5.44105 14.0235 3.58638 12.656 2.21893C11.2886 0.851479 9.43391 0.083252 7.50004 0.083252Z" fill="black"/>
</svg>
