<svg width="50" height="50" viewBox="0 0 50 50" fill="none" xmlns="http://www.w3.org/2000/svg">
<circle cx="25" cy="25" r="25" fill="#FFC700"/>
<path d="M20.2916 34.9166V25.3853C19.4062 25.1423 18.6642 24.6562 18.0656 23.927C17.467 23.1978 17.1673 22.3471 17.1666 21.3749V14.0833H19.25V21.3749H20.2916V14.0833H22.375V21.3749H23.4166V14.0833H25.5V21.3749C25.5 22.3471 25.2007 23.1978 24.602 23.927C24.0034 24.6562 23.2611 25.1423 22.375 25.3853V34.9166H20.2916ZM30.7083 34.9166V26.5833H27.5833V19.2916C27.5833 17.8506 28.0913 16.6225 29.1073 15.6072C30.1232 14.5919 31.3513 14.0839 32.7916 14.0833V34.9166H30.7083Z" fill="black"/>
</svg>
