<svg width="42" height="36" viewBox="0 0 42 36" fill="none" xmlns="http://www.w3.org/2000/svg">
<path d="M17.7965 32.4375C17.7965 33.0865 17.5878 33.7209 17.1967 34.2605C16.8056 34.8001 16.2497 35.2206 15.5993 35.469C14.9489 35.7173 14.2333 35.7823 13.5428 35.6557C12.8524 35.5291 12.2182 35.2166 11.7204 34.7577C11.2226 34.2988 10.8837 33.7141 10.7463 33.0776C10.609 32.4411 10.6795 31.7814 10.9489 31.1818C11.2183 30.5823 11.6745 30.0698 12.2598 29.7092C12.8451 29.3487 13.5333 29.1563 14.2372 29.1563C15.1812 29.1563 16.0865 29.502 16.754 30.1173C17.4215 30.7327 17.7965 31.5673 17.7965 32.4375ZM32.7456 29.1563C32.0417 29.1563 31.3535 29.3487 30.7682 29.7092C30.1829 30.0698 29.7267 30.5823 29.4573 31.1818C29.1879 31.7814 29.1174 32.4411 29.2547 33.0776C29.3921 33.7141 29.731 34.2988 30.2288 34.7577C30.7266 35.2166 31.3608 35.5291 32.0512 35.6557C32.7417 35.7823 33.4573 35.7173 34.1077 35.469C34.7581 35.2206 35.314 34.8001 35.7051 34.2605C36.0962 33.7209 36.3049 33.0865 36.3049 32.4375C36.3049 31.5673 35.9299 30.7327 35.2624 30.1173C34.5949 29.502 33.6896 29.1563 32.7456 29.1563ZM41.9055 9.39164L37.0488 23.944C36.7388 24.8851 36.1078 25.7089 35.2495 26.2932C34.3913 26.8775 33.3516 27.1911 32.2847 27.1875H14.7587C13.6765 27.1843 12.6246 26.8578 11.7605 26.2571C10.8965 25.6564 10.2669 24.8137 9.96606 23.8554L3.88142 4.21875H2.13558C1.56919 4.21875 1.026 4.01133 0.625498 3.64212C0.224998 3.2729 0 2.77215 0 2.25C0 1.72786 0.224998 1.2271 0.625498 0.857884C1.026 0.488671 1.56919 0.28125 2.13558 0.28125H4.4171C5.19008 0.283451 5.94145 0.516651 6.55849 0.945864C7.17552 1.37508 7.62496 1.97716 7.83938 2.6618L9.13674 6.84375H39.8642C40.1985 6.84373 40.528 6.91602 40.8264 7.05481C41.1248 7.19361 41.3837 7.39502 41.5823 7.64287C41.7808 7.89071 41.9135 8.17806 41.9697 8.48179C42.0258 8.78552 42.0038 9.09716 41.9055 9.39164ZM36.9723 10.7813H10.3558L14.0735 22.7742C14.1161 22.9114 14.206 23.0321 14.3296 23.1179C14.4533 23.2038 14.6039 23.2502 14.7587 23.25H32.2847C32.4371 23.2503 32.5855 23.2055 32.7082 23.1222C32.8309 23.0389 32.9214 22.9216 32.9663 22.7873L36.9723 10.7813Z" fill="#F8F8F8"/>
</svg>
