<svg width="23" height="23" viewBox="0 0 23 23" fill="none" xmlns="http://www.w3.org/2000/svg">
<path d="M20.6833 22.375L13.0708 14.7625C12.4667 15.2458 11.7719 15.6285 10.9865 15.9104C10.201 16.1924 9.36528 16.3333 8.47917 16.3333C6.28403 16.3333 4.42642 15.5729 2.90633 14.052C1.38625 12.5311 0.625806 10.6735 0.625 8.47917C0.625 6.28403 1.38544 4.42642 2.90633 2.90633C4.42722 1.38625 6.28483 0.625806 8.47917 0.625C10.6743 0.625 12.5323 1.38544 14.0532 2.90633C15.5741 4.42722 16.3341 6.28483 16.3333 8.47917C16.3333 9.36528 16.1924 10.201 15.9104 10.9865C15.6285 11.7719 15.2458 12.4667 14.7625 13.0708L22.375 20.6833L20.6833 22.375ZM8.47917 13.9167C9.98958 13.9167 11.2736 13.3882 12.3313 12.3313C13.389 11.2744 13.9175 9.99039 13.9167 8.47917C13.9167 6.96875 13.3882 5.6851 12.3313 4.62821C11.2744 3.57132 9.99039 3.04247 8.47917 3.04167C6.96875 3.04167 5.6851 3.57051 4.62821 4.62821C3.57132 5.6859 3.04247 6.96956 3.04167 8.47917C3.04167 9.98958 3.57051 11.2736 4.62821 12.3313C5.6859 13.389 6.96956 13.9175 8.47917 13.9167Z" fill="black" fill-opacity="0.5"/>
</svg>
