<svg width="35" height="35" viewBox="0 0 35 35" fill="none" xmlns="http://www.w3.org/2000/svg">
<path d="M17.5 2.9165C9.45002 2.9165 2.91669 9.44984 2.91669 17.4998C2.91669 25.5498 9.45002 32.0832 17.5 32.0832C25.55 32.0832 32.0834 25.5498 32.0834 17.4998C32.0834 9.44984 25.55 2.9165 17.5 2.9165ZM24.2667 12.8332C24.0479 15.1373 23.1 20.7373 22.6188 23.3186C22.4146 24.4123 22.0063 24.7769 21.6271 24.8207C20.7813 24.8936 20.1396 24.2665 19.3229 23.7269C18.0396 22.8811 17.3104 22.3561 16.0709 21.5394C14.6271 20.5915 15.5604 20.0665 16.3917 19.2207C16.6104 19.0019 20.3438 15.604 20.4167 15.2978C20.4268 15.2514 20.4255 15.2032 20.4128 15.1575C20.4001 15.1117 20.3764 15.0698 20.3438 15.0353C20.2563 14.9623 20.1396 14.9915 20.0375 15.0061C19.9063 15.0353 17.8646 16.3915 13.8834 19.0748C13.3 19.4686 12.775 19.6728 12.3084 19.6582C11.7834 19.6436 10.7917 19.3665 10.0479 19.1186C9.12919 18.8269 8.4146 18.6665 8.47294 18.1561C8.5021 17.8936 8.86669 17.6311 9.5521 17.354C13.8104 15.5019 16.6396 14.2769 18.0542 13.6936C22.1084 12.0019 22.9396 11.7103 23.4938 11.7103C23.6104 11.7103 23.8875 11.7394 24.0625 11.8853C24.2084 12.0019 24.2521 12.1623 24.2667 12.279C24.2521 12.3665 24.2813 12.629 24.2667 12.8332Z" fill="#F8F8F8"/>
</svg>
