<svg width="35" height="35" viewBox="0 0 35 35" fill="none" xmlns="http://www.w3.org/2000/svg">
<g clip-path="url(#clip0_83_801)">
<path fill-rule="evenodd" clip-rule="evenodd" d="M20.4167 2.9165C21.1902 2.9165 21.9321 3.22379 22.4791 3.77078C23.0261 4.31776 23.3333 5.05962 23.3333 5.83317C23.3341 6.84104 23.6824 7.81783 24.3194 8.59885C24.9564 9.37987 25.8433 9.91735 26.8304 10.1207C27.5885 10.2746 28.2544 10.7234 28.6816 11.3683C29.1088 12.0132 29.2623 12.8013 29.1083 13.5594C28.9544 14.3175 28.5056 14.9834 27.8607 15.4106C27.2159 15.8378 26.4277 15.9913 25.6696 15.8373C24.8621 15.673 24.0775 15.411 23.3333 15.0571V23.3332C23.3333 24.9698 22.8742 26.5735 22.0083 27.9623C21.1424 29.351 19.9044 30.4691 18.4349 31.1895C16.9654 31.9099 15.3233 32.2037 13.6951 32.0376C12.067 31.8714 10.5181 31.252 9.22434 30.2497C7.93061 29.2473 6.94392 27.9023 6.37636 26.3672C5.8088 24.8322 5.68312 23.1688 6.0136 21.5659C6.34408 19.963 7.11746 18.4849 8.24591 17.2996C9.37435 16.1142 10.8126 15.2691 12.3973 14.8603C13.1417 14.6807 13.9268 14.8011 14.5831 15.1954C15.2395 15.5898 15.7144 16.2264 15.9055 16.9678C16.0966 17.7093 15.9884 18.4962 15.6043 19.1586C15.2203 19.821 14.5911 20.3058 13.8527 20.5084C13.169 20.6898 12.5744 21.1133 12.1795 21.7001C11.7845 22.2869 11.616 22.9972 11.7053 23.6989C11.7946 24.4006 12.1356 25.046 12.6649 25.5152C13.1943 25.9844 13.876 26.2454 14.5833 26.2498C15.3569 26.2498 16.0988 25.9425 16.6457 25.3956C17.1927 24.8486 17.5 24.1067 17.5 23.3332V5.83317C17.5 5.05962 17.8073 4.31776 18.3543 3.77078C18.9013 3.22379 19.6431 2.9165 20.4167 2.9165Z" fill="#F8F8F8"/>
</g>
<defs>
<clipPath id="clip0_83_801">
<rect width="35" height="35" fill="white"/>
</clipPath>
</defs>
</svg>
