<svg width="47" height="44" viewBox="0 0 47 44" fill="none" xmlns="http://www.w3.org/2000/svg">
<path d="M19.5312 39.1875C19.5312 39.9601 19.3022 40.7153 18.8729 41.3577C18.4437 42.0001 17.8336 42.5007 17.1199 42.7964C16.4061 43.0921 15.6207 43.1694 14.8629 43.0187C14.1052 42.868 13.4092 42.4959 12.8629 41.9496C12.3166 41.4033 11.9445 40.7073 11.7938 39.9496C11.6431 39.1918 11.7204 38.4064 12.0161 37.6926C12.3118 36.9789 12.8124 36.3688 13.4548 35.9396C14.0972 35.5103 14.8524 35.2812 15.625 35.2812C16.661 35.2812 17.6546 35.6928 18.3871 36.4254C19.1197 37.1579 19.5312 38.1515 19.5312 39.1875ZM35.9375 35.2812C35.1649 35.2812 34.4097 35.5103 33.7673 35.9396C33.1249 36.3688 32.6243 36.9789 32.3286 37.6926C32.0329 38.4064 31.9556 39.1918 32.1063 39.9496C32.257 40.7073 32.6291 41.4033 33.1754 41.9496C33.7217 42.4959 34.4177 42.868 35.1754 43.0187C35.9332 43.1694 36.7186 43.0921 37.4324 42.7964C38.1461 42.5007 38.7562 42.0001 39.1854 41.3577C39.6147 40.7153 39.8438 39.9601 39.8438 39.1875C39.8438 38.1515 39.4322 37.1579 38.6996 36.4254C37.9671 35.6928 36.9735 35.2812 35.9375 35.2812ZM45.9902 11.752L40.6602 29.0762C40.3199 30.1965 39.6274 31.1773 38.6855 31.8729C37.7436 32.5685 36.6025 32.9418 35.4316 32.9375H16.1973C15.0096 32.9336 13.8551 32.545 12.9069 31.8299C11.9586 31.1147 11.2677 30.1116 10.9375 28.9707L4.25977 5.59375H2.34375C1.72215 5.59375 1.12601 5.34682 0.686468 4.90728C0.24693 4.46774 0 3.8716 0 3.25C0 2.6284 0.24693 2.03226 0.686468 1.59272C1.12601 1.15318 1.72215 0.90625 2.34375 0.90625H4.84766C5.69598 0.908871 6.52059 1.18649 7.19777 1.69746C7.87495 2.20843 8.3682 2.92519 8.60352 3.74023L10.0273 8.71875H43.75C44.1168 8.71872 44.4785 8.80478 44.806 8.97001C45.1334 9.13524 45.4176 9.37503 45.6355 9.67008C45.8534 9.96513 45.999 10.3072 46.0606 10.6688C46.1222 11.0304 46.0981 11.4014 45.9902 11.752ZM40.5762 13.4062H11.3652L15.4453 27.6836C15.492 27.8469 15.5907 27.9906 15.7264 28.0928C15.8621 28.195 16.0274 28.2502 16.1973 28.25H35.4316C35.5989 28.2503 35.7618 28.197 35.8964 28.0979C36.0311 27.9987 36.1304 27.859 36.1797 27.6992L40.5762 13.4062Z" fill="#F8F8F8"/>
</svg>
